<?xml version="1.0" encoding="utf-8"?>
<!-- Generator: Adobe Illustrator 17.1.0, SVG Export Plug-In . SVG Version: 6.00 Build 0)  -->
<!DOCTYPE svg PUBLIC "-//W3C//DTD SVG 1.1//EN" "http://www.w3.org/Graphics/SVG/1.1/DTD/svg11.dtd">
<svg version="1.1"
	 id="svg3854" xmlns:dc="http://purl.org/dc/elements/1.1/" xmlns:cc="http://creativecommons.org/ns#" xmlns:rdf="http://www.w3.org/1999/02/22-rdf-syntax-ns#" xmlns:svg="http://www.w3.org/2000/svg" xmlns:sodipodi="http://sodipodi.sourceforge.net/DTD/sodipodi-0.dtd" xmlns:inkscape="http://www.inkscape.org/namespaces/inkscape" sodipodi:docname="graphics.svg" inkscape:version="0.48.2 r9819"
	 xmlns="http://www.w3.org/2000/svg" xmlns:xlink="http://www.w3.org/1999/xlink" x="0px" y="0px" viewBox="0 0 1600 1200"
	 enable-background="new 0 0 1600 1200" xml:space="preserve">
<sodipodi:namedview  showguides="true" showborder="false" showgrid="false" inkscape:cy="433.01723" inkscape:cx="895.20302" inkscape:zoom="0.5131898" borderopacity="1.0" bordercolor="#666666" pagecolor="#ffffff" id="base" inkscape:guide-bbox="true" inkscape:window-maximized="1" inkscape:window-y="0" inkscape:window-x="0" inkscape:window-height="784" inkscape:window-width="1440" inkscape:snap-page="false" inkscape:document-units="px" inkscape:current-layer="layer1" inkscape:pageshadow="2" inkscape:pageopacity="0.0">
	</sodipodi:namedview>
<g id="layer1" inkscape:label="Layer 1" inkscape:groupmode="layer">
	<g id="flowRoot4493">
	</g>
	
		<rect id="rect3151" x="460.3" y="605.1" inkscape:export-ydpi="120" inkscape:export-xdpi="120" inkscape:export-filename="/Users/anivamainali/Desktop/Projects/Libraries/lotech/samples/linerunner/bg.png" fill="#137A8F" width="480" height="230">
	</rect>
	
		<path id="path3850" inkscape:connector-curvature="0" inkscape:export-ydpi="120" inkscape:export-xdpi="120" inkscape:export-filename="/Users/anivamainali/Desktop/Projects/Libraries/lotech/samples/linerunner/bg.png" d="
		M460.3,791.4v-43.9h4.1c2.3,0,4.1,0.3,4.1,0.7c0,0.7,8.6,9.2,9.8,9.7c0.4,0.1,0.7-10.6,0.7-26.4v-26.7l2.2,0.4
		c2.1,0.4,2.2,0.3,2.4-2.5c0.2-2.3,0.6-2.9,1.9-3.1c1.1-0.2,1.7-0.8,1.7-1.6c0-0.8,0.7-1.6,1.5-1.9c1.4-0.5,1.5-1.1,1.5-13.9
		c0-8.5,0.3-13.4,0.8-13.4c0.5,0,0.8,5,0.8,13.5c0,13,0.1,13.5,1.5,13.5c1.1,0,1.5,0.5,1.5,1.9c0,1.8,0.1,1.9,6,1.9h6l0.5,3
		c0.5,2.9,0.5,3,3.6,3c2.7,0,3.7,0.5,8.2,4.6l5.1,4.6v40.4v40.4h2.8h2.8l2.6-12c1.4-6.6,2.9-12,3.2-12s0.4-0.4,0.1-0.8
		c-0.3-0.4-0.2-1.2,0.2-1.7c1.6-2.1,1.9-7,2.4-38.8l0.4-33.4l3.2-0.2l3.2-0.2v-4.1v-4.1l6.2,0.2l6.2,0.2l0.2,3.6l0.2,3.6h2.9h2.9
		l1.5-6.6c0.8-3.6,2.3-10.1,3.2-14.4s1.9-8,2.2-8.2c1.6-1.2,2.2-8.9,2.2-25.5v-18h-2.6c-1.8,0-2.6-0.3-2.6-1.1
		c0-0.8,0.8-1.1,2.6-1.1h2.6v-5.3c0-4.7,0.2-5.4,1.5-5.7c1.1-0.3,1.5-1,1.5-2.6V605h10.5h10.5l0.4,2.2c0.3,1.5,1,2.3,2,2.4
		c1.4,0.2,1.6,0.8,1.8,5.3c0.2,3.8,0.5,5.1,1.3,5.1c0.6,0,1.1,0.5,1.1,1.1s-0.5,1.1-1.1,1.1c-1,0-1.1,6.3-1.1,52
		c0,28.6,0.2,56.6,0.5,62.3l0.5,10.3l1.7-1.6c1.4-1.4,2.4-1.5,7.9-1.3c6.2,0.2,6.3,0.2,6.5,2.2c0.2,1.9,0.5,2,4.5,2.2l4.3,0.2
		l0.2,17.1l0.2,17.1h9.4h9.4v-7.2v-7.2l-3.6,0.5c-4.1,0.6-3.7-0.6,0.6-1.7l2.6-0.7l0.2-31.8c0.1-24.3,0.4-31.9,1.1-32.4
		c0.5-0.3,1.9-0.6,3-0.6c1.8,0,2.1-0.3,2.1-2.2c0-1.8,0.4-2.2,2.1-2.5c1.1-0.2,6-1.4,10.9-2.7c4.9-1.3,9.2-2.2,9.6-1.9
		s0.7,1.6,0.7,3c0,1.4,0.3,2.6,0.8,2.6c0.5,0,0.8-9.8,0.8-27.8s0.3-27.7,0.8-27.7c0.5,0,0.8,9.7,0.8,27.7v27.7l4.7,0.2
		c4.5,0.2,4.7,0.3,4.9,2.3l0.2,2l8.8,0.2l8.8,0.2l0.2,12.9l0.2,12.9l10.7,0.2l10.7,0.2l0.2,14.4l0.2,14.4h4.9c4.3,0,4.9-0.2,4.9-1.4
		c0-1.7,1.9-2.3,7.7-2.3l4.3,0l-0.1-14.6l-0.1-14.6l8.5-8l8.5-8l0.4-18.5l0.4-18.5l2.1-0.2l2.1-0.2v-22.8c0-14.7,0.3-22.8,0.8-22.8
		s0.8,8.1,0.8,22.9v22.9h2.2c2.1,0,2.2-0.2,2.2-2.5c0-2.9,0.9-3.4,5.1-3.5c3.4,0,4.4-0.6,4.7-3c0.2-1.6,0.7-1.9,3.1-2.1
		c2.1-0.2,2.8,0,2.8,0.9c0,0.6,0.3,1.2,0.8,1.2s0.8,0.8,0.8,1.8c0,1.2,0.5,1.9,1.5,2.2c1.2,0.3,1.5,1,1.5,3.4c0,2,0.4,3.1,1.1,3.4
		c1,0.4,1.1,7.1,1.1,54.5v54h5.6h5.6l0.3-5.8c0.2-3.2,0.3-22.4,0.2-42.7c-0.1-39.7-0.3-37.7,3.7-37.7c1.4,0,1.8-0.4,1.8-1.8
		c0-2,1.2-2.7,4.8-2.7c1.8,0,2.6-0.4,2.9-1.5c0.3-1.1,1-1.5,2.7-1.5c2.2,0,2.3-0.2,2.3-2.6c0-1.8,0.3-2.6,1.1-2.6s1.1,0.8,1.1,2.6
		v2.6h6.1c5.4,0,6.1,0.2,6.5,1.5c0.2,0.8,0.9,1.5,1.4,1.5c0.8,0,1-2,1-10.4c0-11.6-0.2-11.3,5.5-11.3c2.3,0,2.8-0.2,2-0.7
		c-0.6-0.4-2.4-0.7-4-0.7c-2.8,0-2.9,0-2.6-2.8c0.2-2.8,0.3-2.8,3.8-3c3.4-0.2,3.6-0.3,3.6-2.4c0-1.9,0.3-2.2,1.9-2.2h1.9v-18.8
		c0-12,0.3-18.8,0.8-18.8c0.5,0,0.7,6.8,0.7,18.8c0,17.6,0.1,18.8,1.4,18.8c0.8,0,2.1,0.9,3.1,2c1.4,1.6,1.5,2.1,0.7,2.7
		c-0.6,0.4,4.4,0.6,13.4,0.4l14.4-0.3l0,1.9c0,3-1,3.9-4.8,4.3c-4.3,0.5-4.5,1.5-0.3,1.8l3.2,0.2l0.4,29.9l0.4,29.9l4.5,4.3
		c2.5,2.4,8,7.6,12.3,11.6c5.3,5,7.6,7.6,7.1,8.1c-0.5,0.5-1.1,0.4-1.7-0.4c-1.7-2.1-2.3-1.2-2.3,3.7v4.9h5.2h5.2v-7.1v-7.1h8.6h8.6
		v43.5v43.5h-240h-240L460.3,791.4L460.3,791.4z M490.3,698.4c0-0.6-0.3-1.1-0.8-1.1s-0.8,0.5-0.8,1.1c0,0.6,0.3,1.1,0.8,1.1
		S490.3,699,490.3,698.4z"/>
	<g id="flowRoot3169">
	</g>
</g>
</svg>
